<svg width="25" height="19" fill="none" xmlns="http://www.w3.org/2000/svg"><path d="M20.366 1.518A19.849 19.849 0 0 0 15.48.001a.075.075 0 0 0-.078.038c-.211.375-.445.865-.609 1.25a18.29 18.29 0 0 0-5.489 0 12.39 12.39 0 0 0-.618-1.25A.077.077 0 0 0 8.607 0 19.711 19.711 0 0 0 3.72 1.518a.062.062 0 0 0-.032.027C.576 6.195-.277 10.731.141 15.21a.084.084 0 0 0 .032.055 19.92 19.92 0 0 0 5.994 3.031.075.075 0 0 0 .084-.028c.462-.63.874-1.295 1.228-1.994a.075.075 0 0 0-.042-.105 13.327 13.327 0 0 1-1.873-.893.075.075 0 0 1-.03-.1.077.077 0 0 1 .023-.028 10.2 10.2 0 0 0 .372-.292.075.075 0 0 1 .076-.01c3.93 1.794 8.184 1.794 12.066 0a.078.078 0 0 1 .079.01c.12.099.246.198.372.292a.076.076 0 0 1-.006.128c-.598.349-1.225.647-1.874.891a.075.075 0 0 0-.045.045.079.079 0 0 0 .005.062c.36.697.772 1.364 1.225 1.994a.075.075 0 0 0 .084.028 19.86 19.86 0 0 0 6.004-3.03.074.074 0 0 0 .031-.056c.502-5.178-.838-9.677-3.55-13.663a.052.052 0 0 0-.03-.029Zm-12.3 10.964c-1.185 0-2.158-1.086-2.158-2.419 0-1.334.955-2.42 2.157-2.42 1.211 0 2.176 1.095 2.158 2.42 0 1.333-.956 2.42-2.158 2.42Zm7.976 0c-1.183 0-2.158-1.086-2.158-2.419 0-1.334.956-2.42 2.158-2.42 1.21 0 2.177 1.095 2.158 2.42 0 1.333-.947 2.42-2.158 2.42Z" fill="#fff"/></svg>