<svg width="25" height="19" viewBox="0 0 25 19" fill="none" xmlns="http://www.w3.org/2000/svg">
<path d="M20.3663 1.51803C18.8095 0.803602 17.1668 0.293702 15.4792 0.00104226C15.4639 -0.00153278 15.4482 0.000691196 15.4342 0.00740848C15.4202 0.0141258 15.4087 0.0250064 15.4012 0.0385543C15.1896 0.413675 14.9555 0.904333 14.792 1.28846C12.9728 1.01238 11.1224 1.01238 9.30321 1.28846C9.12077 0.860549 8.91438 0.443254 8.68501 0.0385543C8.67732 0.0251548 8.66574 0.0143995 8.65182 0.0077038C8.63789 0.0010081 8.62226 -0.00131421 8.60699 0.00104226C6.91895 0.292136 5.27592 0.802301 3.71992 1.51803C3.70661 1.52311 3.69547 1.53266 3.68841 1.54504C0.576417 6.19504 -0.277357 10.731 0.141277 15.2099C0.142778 15.231 0.156282 15.252 0.172787 15.2655C1.98495 16.6078 4.0119 17.6327 6.16721 18.2964C6.18242 18.3012 6.19878 18.3011 6.21389 18.2959C6.229 18.2908 6.24208 18.281 6.25123 18.2679C6.71338 17.6377 7.12451 16.973 7.47863 16.2738C7.48601 16.2594 7.48853 16.243 7.48583 16.227C7.48313 16.2111 7.47534 16.1964 7.46362 16.1853C7.45587 16.1779 7.44667 16.1723 7.43661 16.1688C6.79015 15.9203 6.16405 15.6218 5.56401 15.276C5.54725 15.2665 5.53479 15.2509 5.5292 15.2325C5.52362 15.214 5.52534 15.1941 5.534 15.1769C5.53911 15.1658 5.54683 15.156 5.55651 15.1484C5.68255 15.0539 5.80859 14.9549 5.92863 14.8558C5.93923 14.8473 5.95196 14.8418 5.96544 14.84C5.97892 14.8381 5.99265 14.84 6.00516 14.8453C9.93491 16.6399 14.1888 16.6399 18.0705 14.8453C18.0835 14.8397 18.0977 14.8377 18.1117 14.8396C18.1257 14.8414 18.139 14.847 18.15 14.8558C18.2701 14.9549 18.3961 15.0539 18.5222 15.1484C18.5324 15.1559 18.5406 15.1658 18.546 15.1772C18.5515 15.1886 18.554 15.2012 18.5535 15.2138C18.5529 15.2264 18.5491 15.2387 18.5426 15.2496C18.5361 15.2604 18.527 15.2695 18.5162 15.276C17.9175 15.625 17.2906 15.9231 16.6421 16.1673C16.6317 16.171 16.6223 16.177 16.6145 16.1847C16.6068 16.1925 16.6008 16.2019 16.597 16.2123C16.5936 16.2223 16.5922 16.2329 16.593 16.2435C16.5937 16.2541 16.5967 16.2644 16.6015 16.2738C16.9617 16.9715 17.3743 17.6377 17.8274 18.2679C17.8366 18.281 17.8497 18.2908 17.8648 18.2959C17.8799 18.3011 17.8963 18.3012 17.9115 18.2964C20.0704 17.6348 22.1006 16.6097 23.9149 15.2655C23.924 15.2592 23.9315 15.2509 23.937 15.2413C23.9424 15.2317 23.9457 15.221 23.9464 15.2099C24.4476 10.0318 23.1076 5.53333 20.3963 1.54654C20.3935 1.53996 20.3895 1.53402 20.3843 1.52911C20.3791 1.5242 20.373 1.52042 20.3663 1.51803ZM8.06532 12.4821C6.88144 12.4821 5.90762 11.3957 5.90762 10.0633C5.90762 8.72936 6.86343 7.643 8.06532 7.643C9.2762 7.643 10.241 8.73836 10.223 10.0633C10.223 11.3957 9.2672 12.4821 8.06532 12.4821ZM16.0419 12.4821C14.8595 12.4821 13.8842 11.3957 13.8842 10.0633C13.8842 8.72936 14.84 7.643 16.0419 7.643C17.2528 7.643 18.2191 8.73836 18.1996 10.0633C18.1996 11.3957 17.2528 12.4821 16.0419 12.4821Z" fill="white"/>
</svg>
