<svg width="25" height="24" viewBox="0 0 25 24" fill="none" xmlns="http://www.w3.org/2000/svg">
<path d="M5.26785 11.4266C5.26783 11.2926 5.29429 11.1599 5.3457 11.0361C5.39712 10.9123 5.47249 10.8 5.56747 10.7054C5.66245 10.6108 5.77518 10.536 5.89918 10.4851C6.02318 10.4343 6.15601 10.4084 6.29003 10.409L7.98471 10.4146C8.25492 10.4146 8.51406 10.5219 8.70513 10.713C8.8962 10.904 9.00354 11.1632 9.00354 11.4334V17.8416C9.19444 17.785 9.43928 17.7247 9.7075 17.6618C9.89373 17.618 10.0597 17.5125 10.1785 17.3626C10.2973 17.2126 10.362 17.0269 10.362 16.8356V8.88677C10.362 8.61653 10.4693 8.35735 10.6604 8.16623C10.8514 7.97512 11.1106 7.86773 11.3808 7.86769H13.0789C13.3492 7.86776 13.6083 7.97515 13.7994 8.16626C13.9904 8.35737 14.0978 8.61654 14.0978 8.88677V16.2643C14.0978 16.2643 14.5227 16.0922 14.937 15.9174C15.0908 15.8524 15.2221 15.7434 15.3144 15.6043C15.4067 15.4651 15.456 15.3018 15.4562 15.1348V6.33924C15.4562 6.20545 15.4825 6.07298 15.5337 5.94937C15.5849 5.82577 15.6599 5.71345 15.7545 5.61884C15.8491 5.52424 15.9614 5.44919 16.085 5.39798C16.2086 5.34677 16.3411 5.32041 16.4748 5.3204H18.1729C18.4432 5.3204 18.7023 5.42774 18.8934 5.61881C19.0845 5.80987 19.1918 6.06902 19.1919 6.33924V13.5819C20.664 12.515 22.156 11.2317 23.34 9.68871C23.5118 9.46473 23.6255 9.20172 23.6709 8.92313C23.7163 8.64454 23.692 8.35904 23.6003 8.0921C22.7992 5.75739 21.2965 3.72711 19.2977 2.27886C17.2989 0.830614 14.9015 0.0350984 12.4334 0.00108788C5.77804 -0.0883165 0.277724 5.34451 0.278378 12.0007C0.271843 14.107 0.821566 16.1776 1.87196 18.0032C2.01682 18.2529 2.22993 18.4561 2.48626 18.5889C2.74259 18.7217 3.03149 18.7786 3.31902 18.7529C3.64027 18.7246 4.04022 18.6846 4.51568 18.6288C4.72263 18.6053 4.91368 18.5064 5.05246 18.3511C5.19124 18.1958 5.26805 17.9949 5.26826 17.7866V11.4266" fill="white"/>
<path d="M5.23153 21.7037C7.0214 23.0058 9.13659 23.7874 11.3431 23.962C13.5496 24.1366 15.7614 23.6974 17.7337 22.6929C19.7061 21.6885 21.3622 20.1581 22.5187 18.2709C23.6753 16.3837 24.2872 14.2133 24.2869 11.9999C24.2869 11.7236 24.274 11.4504 24.2556 11.1787C19.8718 17.7165 11.7777 20.7733 5.23145 21.704" fill="white"/>
</svg>
