<svg width="23" height="20" viewBox="0 0 23 20" fill="none" xmlns="http://www.w3.org/2000/svg">
<path d="M2.06338 11.4732L2.13984 11.3531L6.7486 4.14331C6.81592 4.03772 6.9743 4.04866 7.02525 4.16331C7.79521 5.88889 8.45957 8.03491 8.14831 9.37093C8.01544 9.92061 7.65143 10.6651 7.24186 11.3531C7.18907 11.4532 7.13084 11.5516 7.06895 11.6462C7.03981 11.6899 6.99068 11.7154 6.93789 11.7154H2.19807C2.07067 11.7154 1.99606 11.577 2.06338 11.4732Z" fill="white"/>
<path d="M22.6061 12.8139V13.9552C22.6061 14.0207 22.5661 14.0789 22.5078 14.1044C22.1511 14.2573 20.9297 14.818 20.4218 15.5242C19.1259 17.328 18.1357 19.9072 15.9223 19.9072H6.68845C3.41571 19.9072 0.763672 17.2461 0.763672 13.9625V13.8569C0.763672 13.7695 0.834656 13.6985 0.922057 13.6985H6.06955C6.17148 13.6985 6.24613 13.7932 6.23703 13.8933C6.20061 14.2282 6.2625 14.5704 6.42085 14.8817C6.72668 15.5023 7.3601 15.89 8.0445 15.89H10.5928V13.9006H8.0736C7.94439 13.9006 7.86793 13.7513 7.94257 13.6457C7.96986 13.6039 8.0008 13.5602 8.03356 13.511C8.27202 13.1725 8.61238 12.6464 8.95096 12.0476C9.1821 11.6435 9.40599 11.2121 9.58619 10.7789C9.62261 10.7006 9.65174 10.6206 9.68084 10.5423C9.73001 10.404 9.78095 10.2747 9.81737 10.1455C9.85375 10.0363 9.88288 9.9216 9.91202 9.8142C9.99757 9.44652 10.034 9.05699 10.034 8.6529C10.034 8.49455 10.0267 8.32892 10.0121 8.17054C10.0049 7.99763 9.983 7.82471 9.96115 7.6518C9.94658 7.49889 9.9193 7.34782 9.89017 7.18948C9.85375 6.9583 9.8028 6.72897 9.74454 6.49779L9.72454 6.41043C9.68084 6.25208 9.64446 6.10098 9.59347 5.94263C9.44969 5.4457 9.28403 4.96153 9.1093 4.5083C9.0456 4.32811 8.97277 4.15519 8.89997 3.98228C8.79257 3.72197 8.68336 3.48535 8.58328 3.26146C8.5323 3.15953 8.4886 3.06669 8.44494 2.97205C8.3958 2.86465 8.34482 2.75728 8.29387 2.65532C8.25746 2.57705 8.21557 2.50425 8.18647 2.43146L7.87521 1.85626C7.83151 1.778 7.90435 1.68516 7.98986 1.70882L9.93749 2.2367H9.94296C9.94658 2.2367 9.94843 2.23851 9.95024 2.23851L10.2069 2.30949L10.489 2.38957L10.5928 2.4187V1.26107C10.5928 0.702251 11.0406 0.249023 11.5939 0.249023C11.8706 0.249023 12.1217 0.361857 12.3019 0.545715C12.4821 0.729573 12.595 0.980754 12.595 1.26107V2.97933L12.8025 3.03756C12.8189 3.04303 12.8353 3.05032 12.8498 3.06122C12.9008 3.09945 12.9736 3.15591 13.0664 3.22504C13.1392 3.28331 13.2175 3.35429 13.3122 3.42709C13.4996 3.57819 13.7235 3.77295 13.9692 3.99681C14.0348 4.05327 14.0985 4.11149 14.1567 4.16976C14.4735 4.4646 14.8284 4.81047 15.167 5.19271C15.2616 5.30007 15.3544 5.40929 15.4491 5.52397C15.5437 5.64047 15.6438 5.75515 15.7312 5.86984C15.8459 6.02271 15.9696 6.18106 16.077 6.34672C16.128 6.42499 16.1862 6.50507 16.2354 6.58334C16.3737 6.79267 16.4957 7.00928 16.6122 7.22586C16.6613 7.32597 16.7123 7.43519 16.756 7.54259C16.8852 7.832 16.9871 8.12688 17.0527 8.42176C17.0727 8.48546 17.0873 8.55463 17.0945 8.61652V8.63105C17.1164 8.71845 17.1236 8.81129 17.1309 8.90593C17.1601 9.20806 17.1455 9.51022 17.08 9.8142C17.0527 9.94345 17.0163 10.0654 16.9726 10.1946C16.9289 10.3184 16.8852 10.4476 16.8288 10.5696C16.7196 10.8226 16.5903 11.0756 16.4374 11.3122C16.3883 11.3996 16.3301 11.4924 16.2718 11.5798C16.2081 11.6726 16.1426 11.76 16.0843 11.8456C16.0042 11.9548 15.9187 12.0694 15.8313 12.1714C15.7531 12.2788 15.6729 12.3862 15.5856 12.4808C15.4636 12.6246 15.3471 12.7611 15.2252 12.8922C15.1524 12.9777 15.0741 13.0651 14.994 13.1434C14.9157 13.2307 14.8357 13.309 14.7629 13.3818C14.6409 13.5038 14.539 13.5984 14.4534 13.6767L14.2532 13.8605C14.2241 13.886 14.1859 13.9006 14.1458 13.9006H12.595V15.89H14.5462C14.9831 15.89 15.3981 15.7353 15.733 15.4514C15.8477 15.3513 16.3482 14.918 16.9398 14.2646C16.9598 14.2428 16.9853 14.2264 17.0144 14.2191L22.404 12.661C22.5042 12.6319 22.6061 12.7083 22.6061 12.8139Z" fill="white"/>
</svg>
