<svg width="25" height="20" viewBox="0 0 25 20" fill="none" xmlns="http://www.w3.org/2000/svg">
<path d="M7.54149 19.7566C16.6015 19.7566 21.5576 12.2496 21.5576 5.75089C21.5576 5.54082 21.5576 5.32775 21.5486 5.11768C22.5135 4.41918 23.3463 3.55439 24.0079 2.56383C23.1066 2.96124 22.1515 3.22316 21.1735 3.34109C22.2036 2.72534 22.9752 1.75652 23.3447 0.614685C22.3769 1.18806 21.3176 1.59057 20.2132 1.80458C19.4707 1.01385 18.4882 0.49002 17.4179 0.314221C16.3476 0.138422 15.2491 0.320469 14.2927 0.832163C13.3363 1.34386 12.5754 2.15664 12.1277 3.14462C11.68 4.13259 11.5706 5.24062 11.8164 6.29708C9.85787 6.19887 7.94185 5.69008 6.19261 4.80369C4.44337 3.91731 2.89999 2.67314 1.66255 1.15186C1.03435 2.23685 0.842639 3.52025 1.12634 4.74146C1.41004 5.96266 2.14789 7.03012 3.19005 7.72705C2.40911 7.70052 1.64533 7.49081 0.960318 7.11485V7.18237C0.961664 8.31897 1.35541 9.42025 2.075 10.3C2.79458 11.1798 3.79588 11.7842 4.90962 12.011C4.48688 12.1274 4.05018 12.1855 3.61169 12.1835C3.30257 12.1845 2.99406 12.1558 2.69039 12.098C3.00517 13.0764 3.61811 13.9319 4.44334 14.5445C5.26857 15.1572 6.26477 15.4964 7.29241 15.5146C5.54667 16.8858 3.39022 17.6295 1.17039 17.6258C0.779239 17.6275 0.388363 17.6049 0 17.5583C2.25302 18.9947 4.86956 19.7574 7.54149 19.7566Z" fill="white"/>
</svg>
