<svg width="25" height="24" fill="none" xmlns="http://www.w3.org/2000/svg"><path d="M5.268 11.427a1.018 1.018 0 0 1 1.022-1.018l1.695.006a1.019 1.019 0 0 1 1.019 1.018v6.409c.19-.057.435-.117.704-.18a.85.85 0 0 0 .654-.826v-7.95a1.019 1.019 0 0 1 1.019-1.018h1.698a1.02 1.02 0 0 1 1.019 1.019v7.377s.425-.172.839-.347a.85.85 0 0 0 .52-.782V6.339a1.019 1.019 0 0 1 1.018-1.019h1.698a1.019 1.019 0 0 1 1.019 1.02v7.242c1.472-1.067 2.964-2.35 4.148-3.893a1.71 1.71 0 0 0 .26-1.597A11.98 11.98 0 0 0 12.433.002C5.778-.089.278 5.344.278 12a11.962 11.962 0 0 0 1.594 6.002 1.517 1.517 0 0 0 1.447.75c.321-.028.721-.068 1.197-.124a.848.848 0 0 0 .752-.842v-6.36M5.232 21.704A11.998 11.998 0 0 0 24.287 12c0-.276-.013-.55-.031-.821-4.384 6.537-12.478 9.594-19.025 10.525" fill="#fff"/></svg>