<svg width="23" height="20" fill="none" xmlns="http://www.w3.org/2000/svg"><path d="m2.063 11.473.077-.12 4.609-7.21a.158.158 0 0 1 .276.02c.77 1.726 1.435 3.872 1.123 5.208-.133.55-.497 1.294-.906 1.982-.053.1-.111.199-.173.293a.157.157 0 0 1-.131.07h-4.74a.157.157 0 0 1-.135-.243Z" fill="#fff"/><path d="M22.606 12.814v1.141c0 .066-.04.124-.098.15-.357.152-1.578.713-2.086 1.42-1.296 1.803-2.286 4.382-4.5 4.382H6.688c-3.272 0-5.924-2.66-5.924-5.944v-.106c0-.087.07-.159.158-.159H6.07c.101 0 .176.095.167.195-.036.335.026.677.184.989.306.62.94 1.008 1.623 1.008h2.549V13.9h-2.52a.162.162 0 0 1-.13-.254l.09-.135c.239-.338.58-.865.918-1.463.231-.405.455-.836.635-1.27.037-.077.066-.157.095-.236.049-.138.1-.267.136-.396.037-.11.066-.224.095-.332.086-.367.122-.757.122-1.161 0-.158-.007-.324-.022-.482-.007-.173-.029-.346-.05-.52a5.377 5.377 0 0 0-.072-.462 7.797 7.797 0 0 0-.145-.691l-.02-.088c-.044-.158-.08-.309-.132-.467-.143-.497-.309-.981-.484-1.435-.063-.18-.136-.353-.209-.526-.107-.26-.217-.497-.317-.72a9.908 9.908 0 0 1-.138-.29c-.05-.107-.1-.215-.151-.317-.037-.078-.078-.15-.108-.224l-.31-.575a.102.102 0 0 1 .114-.147l1.947.528h.006c.004 0 .005.002.007.002l.257.07.282.08.104.03V1.26c0-.559.448-1.012 1-1.012.278 0 .529.113.709.297.18.184.293.435.293.715V2.98l.207.059a.164.164 0 0 1 .048.023l.216.164c.073.058.151.13.246.202.188.151.412.346.657.57.066.056.13.114.188.173.316.295.671.64 1.01 1.023.095.107.187.216.282.331.095.116.195.231.282.346.115.153.239.311.346.477.051.078.11.158.158.236.139.21.26.426.377.643.05.1.1.21.144.317.13.289.231.584.297.879.02.063.034.133.041.195v.014c.022.087.03.18.037.275a2.938 2.938 0 0 1-.158 1.289c-.044.123-.088.253-.144.375-.11.253-.239.506-.392.742a4.22 4.22 0 0 1-.165.268c-.064.093-.13.18-.188.266-.08.109-.165.223-.253.325a3.452 3.452 0 0 1-.245.31c-.122.144-.239.28-.36.411a3.793 3.793 0 0 1-.232.251c-.078.088-.158.166-.231.239a9.241 9.241 0 0 1-.31.295l-.2.184a.163.163 0 0 1-.107.04h-1.551v1.989h1.951c.437 0 .852-.155 1.187-.439.115-.1.615-.533 1.207-1.186a.152.152 0 0 1 .074-.046l5.39-1.558c.1-.03.202.047.202.153Z" fill="#fff"/></svg>