<svg width="25" height="20" fill="none" xmlns="http://www.w3.org/2000/svg"><path d="M7.541 19.757c9.06 0 14.017-7.507 14.017-14.006 0-.21 0-.423-.01-.633a10.03 10.03 0 0 0 2.46-2.554 9.99 9.99 0 0 1-2.834.777 4.953 4.953 0 0 0 2.17-2.726 9.802 9.802 0 0 1-3.13 1.19 4.93 4.93 0 0 0-8.398 4.492A13.992 13.992 0 0 1 1.663 1.152 4.935 4.935 0 0 0 3.19 7.727a4.986 4.986 0 0 1-2.23-.612v.067a4.933 4.933 0 0 0 3.95 4.829c-.423.116-.86.175-1.298.173a4.844 4.844 0 0 1-.922-.086 4.926 4.926 0 0 0 4.602 3.417 9.884 9.884 0 0 1-6.122 2.11A9.478 9.478 0 0 1 0 17.559a14.02 14.02 0 0 0 7.541 2.199Z" fill="#fff"/></svg>